<svg width="68" height="68" viewBox="0 0 68 68" fill="none" xmlns="http://www.w3.org/2000/svg">
<path d="M68 0H0V50.4516H11.8528C10.0278 53.7891 8.93981 57.5839 8.79723 61.6146C7.51181 62.0621 6.58065 63.2729 6.58065 64.7097C6.58065 66.5237 8.0569 68 9.87097 68C11.685 68 13.1613 66.5237 13.1613 64.7097C13.1613 63.2981 12.263 62.1015 11.0127 61.6354C11.1685 57.5434 12.3903 53.7299 14.4182 50.4516H21.9881C22.2064 52.8821 23.154 55.1535 24.7136 57.0323H23.0323V59.2258H25.2258V61.4194H23.0323V63.6129H25.2258V68H42.7742V63.6129H44.9677V61.4194H42.7742V59.2258H44.9677V57.0323H43.2875C44.8471 55.1535 45.7947 52.8821 46.013 50.4516H53.5829C55.6097 53.7299 56.8326 57.5434 56.9884 61.6354C55.737 62.1015 54.8387 63.2981 54.8387 64.7097C54.8387 66.5237 56.315 68 58.129 68C59.9431 68 61.4194 66.5237 61.4194 64.7097C61.4194 63.2729 60.4882 62.0621 59.2028 61.6146C59.0602 57.5839 57.9733 53.7891 56.1472 50.4516H68V0ZM9.87097 65.8065C9.26665 65.8065 8.77419 65.314 8.77419 64.7097C8.77419 64.1054 9.26665 63.6129 9.87097 63.6129C10.4753 63.6129 10.9677 64.1054 10.9677 64.7097C10.9677 65.314 10.4753 65.8065 9.87097 65.8065ZM58.129 63.6129C58.7334 63.6129 59.2258 64.1054 59.2258 64.7097C59.2258 65.314 58.7334 65.8065 58.129 65.8065C57.5247 65.8065 57.0323 65.314 57.0323 64.7097C57.0323 64.1054 57.5247 63.6129 58.129 63.6129ZM15.9471 48.2581C18.337 45.2375 21.454 42.817 25.0492 41.2946C23.3514 43.1778 22.2338 45.5907 21.9914 48.2581H15.9471ZM40.5806 65.8065H27.4194V63.6129H40.5806V65.8065ZM40.5806 61.4194H27.4194V59.2258H40.5806V61.4194ZM40.9097 56.3983L40.5806 56.7208V57.0323H35.0968V53.5862C36.9832 53.0959 38.3871 51.3926 38.3871 49.3548C38.3871 46.9354 36.4195 44.9677 34 44.9677C31.5805 44.9677 29.6129 46.9354 29.6129 49.3548C29.6129 51.3926 31.0168 53.0959 32.9032 53.5862V57.0323H27.4194V56.7208L27.0903 56.3983C25.1808 54.5239 24.129 52.0233 24.129 49.3548C24.129 43.9126 28.5578 39.4839 34 39.4839C39.4422 39.4839 43.871 43.9126 43.871 49.3548C43.871 52.0233 42.8192 54.5239 40.9097 56.3983ZM34 51.5484C32.7903 51.5484 31.8065 50.5646 31.8065 49.3548C31.8065 48.1451 32.7903 47.1613 34 47.1613C35.2097 47.1613 36.1935 48.1451 36.1935 49.3548C36.1935 50.5646 35.2097 51.5484 34 51.5484ZM46.0086 48.2581C45.7662 45.5907 44.6486 43.1778 42.9508 41.2946C46.5449 42.817 49.663 45.2375 52.0529 48.2581H46.0086ZM65.8065 48.2581H54.7948C52.1735 44.4468 48.5323 41.3923 44.2691 39.4839H57.2341C57.6881 40.7572 58.8946 41.6774 60.3226 41.6774C62.1366 41.6774 63.6129 40.2012 63.6129 38.3871C63.6129 36.573 62.1366 35.0968 60.3226 35.0968C58.8946 35.0968 57.6881 36.017 57.2341 37.2903H10.7659C10.3119 36.017 9.10542 35.0968 7.67742 35.0968C5.86335 35.0968 4.3871 36.573 4.3871 38.3871C4.3871 40.2012 5.86335 41.6774 7.67742 41.6774C9.10542 41.6774 10.3119 40.7572 10.7659 39.4839H23.7309C19.4677 41.3923 15.8265 44.4468 13.2052 48.2581H2.19355V10.9677H65.8065V48.2581ZM59.2258 38.3871C59.2258 37.7828 59.7183 37.2903 60.3226 37.2903C60.9269 37.2903 61.4194 37.7828 61.4194 38.3871C61.4194 38.9914 60.9269 39.4839 60.3226 39.4839C59.7183 39.4839 59.2258 38.9914 59.2258 38.3871ZM8.77419 38.3871C8.77419 38.9914 8.28174 39.4839 7.67742 39.4839C7.0731 39.4839 6.58065 38.9914 6.58065 38.3871C6.58065 37.7828 7.0731 37.2903 7.67742 37.2903C8.28174 37.2903 8.77419 37.7828 8.77419 38.3871ZM65.8065 8.77419H2.19355V2.19355H65.8065V8.77419Z" fill="white"/>
</svg>
