<svg width="64" height="70" viewBox="0 0 64 70" fill="none" xmlns="http://www.w3.org/2000/svg">
<path fill-rule="evenodd" clip-rule="evenodd" d="M50.9374 0.167158C50.0727 0.400281 49.0843 0.9117 48.4351 1.462C48.1227 1.72688 46.8357 3.48372 45.4477 5.53994L43.0094 9.15259L23.7164 9.15587L4.42333 9.15902L3.61676 9.48756C1.97944 10.1542 0.90457 11.2293 0.305901 12.7993L0 13.6015V32.2185C0 49.4092 0.0181079 50.8934 0.236786 51.5919C0.718237 53.1301 2.05837 54.5346 3.66307 55.1827L4.42333 55.4897L15.839 55.5291L27.2545 55.5686L26.5207 58.6091C26.1173 60.2815 25.7552 61.7803 25.7161 61.9399C25.6484 62.2174 25.5475 62.2327 23.3972 62.2927C20.8556 62.3636 20.3275 62.511 19.2898 63.4394C18.4639 64.1784 18.0311 65.0989 17.9384 66.3147L17.8621 67.3138L15.381 67.3564L12.8999 67.3991L12.5665 67.7832C12.1144 68.3042 12.1145 69.0952 12.5668 69.6159L12.9005 70H32H51.0995L51.4332 69.6159C51.8855 69.0952 51.8856 68.3042 51.4335 67.7832L51.1001 67.3991L48.619 67.3564L46.1379 67.3138L46.0616 66.3147C45.9689 65.0989 45.5361 64.1784 44.7102 63.4394C43.6725 62.511 43.1444 62.3636 40.6028 62.2927C38.4525 62.2327 38.3516 62.2174 38.2839 61.9399C38.2448 61.7803 37.8827 60.2815 37.4793 58.6091L36.7455 55.5686L48.161 55.5291L59.5767 55.4897L60.3718 55.1717C61.9965 54.522 63.4069 52.9835 63.8135 51.4171C63.9656 50.8314 64 47.2718 64 32.15V13.6015L63.6941 12.7993C62.8606 10.6135 60.8072 9.15259 58.5683 9.15259C57.5701 9.15259 57.6142 9.27223 58.1142 7.92058C58.6939 6.35347 58.3969 4.03607 57.4398 2.65855C56.9241 1.9162 55.9388 1.02723 55.2404 0.67447C53.9537 0.0243819 52.2234 -0.179584 50.9374 0.167158ZM53.9365 3.10823C54.567 3.42677 55.1731 4.07727 55.4508 4.73352C55.7273 5.38703 55.6884 6.7369 55.3755 7.34428C55.1192 7.8416 46.1181 18.8234 45.7722 19.0608C45.6515 19.1436 44.9726 18.7194 43.6017 17.7041C42.5046 16.8915 41.6177 16.1891 41.631 16.1431C41.6442 16.0971 43.5529 13.258 45.8725 9.83402C50.1262 3.55517 50.4321 3.17175 51.4416 2.85115C52.0411 2.66087 53.3095 2.7916 53.9365 3.10823ZM37.9572 16.5931L34.7896 21.2958L33.7345 21.3904C29.1174 21.8047 26.1045 24.7729 25.4965 29.5064C25.2533 31.3988 25.6047 34.8502 26.2629 37.0363C26.6345 38.2705 27.5982 38.6632 28.5584 37.9718C30.5927 36.5068 30.6957 36.4808 34.5572 36.458C37.422 36.441 37.8254 36.4098 38.635 36.1419C41.6782 35.1349 43.5091 32.0301 43.0274 28.6936C42.9486 28.1477 42.8765 27.5401 42.8676 27.3436C42.8546 27.0638 44.2051 25.3433 49.0713 19.4407L55.2916 11.8954L57.3758 11.9271C59.3241 11.9568 59.4915 11.9803 59.9455 12.2887C60.5754 12.7166 60.9785 13.3136 61.1555 14.0806C61.2476 14.4791 61.299 19.3012 61.3012 27.7353L61.3045 40.7741H39.5291C15.8782 40.7741 17.0991 40.7345 16.5806 41.5182C16.2854 41.9643 16.3888 42.7601 16.7943 43.1614C17.0787 43.4431 17.0951 43.4434 39.1572 43.5119L61.2354 43.5803V47.1394V50.6986L60.8516 51.3451C60.6027 51.7644 60.2382 52.1254 59.8148 52.3718L59.162 52.7519H32H4.83801L4.18516 52.3718C3.76176 52.1254 3.39725 51.7644 3.14844 51.3451L2.76458 50.6986V47.1394V43.5803L5.0766 43.5119C7.17491 43.4497 7.41474 43.4174 7.67281 43.1614C8.07769 42.7598 8.18094 41.9641 7.88596 41.5182C7.48137 40.9067 6.91366 40.7741 4.70034 40.7741H2.68772L2.72615 27.3247C2.76845 12.5075 2.70431 13.5662 3.61565 12.6557C4.41351 11.8586 3.32012 11.9016 22.9815 11.8957L41.125 11.8904L37.9572 16.5931ZM42.0343 19.9712L43.9044 21.3445L43.6541 21.6716C42.6872 22.9357 41.0301 24.8812 40.9158 24.8865C40.8397 24.8901 40.013 24.3321 39.0784 23.6466L37.3793 22.4002L37.6167 22.0391C38.9719 19.9758 39.9435 18.598 40.043 18.598C40.1096 18.598 41.0058 19.2159 42.0343 19.9712ZM37.5105 25.8873C39.8561 27.6022 40.0012 27.7347 40.1707 28.3171C40.6318 29.9023 40.2268 31.6218 39.1453 32.6704C38.1317 33.6532 37.876 33.7095 34.3499 33.7251C31.1514 33.7392 30.1421 33.8736 29.0559 34.4298C28.8364 34.5423 28.6312 34.609 28.6 34.578C28.4244 34.4041 28.2251 32.6862 28.2152 31.2603C28.1977 28.7572 28.6853 27.2342 29.917 25.9444C30.9659 24.8462 32.7227 24.1139 34.3788 24.0849C35.0033 24.074 35.1301 24.1469 37.5105 25.8873ZM11.7253 40.9749C10.3546 41.5619 10.7367 43.5119 12.2223 43.5119C13.5466 43.5119 14.1255 41.8196 13.0344 41.1378C12.5201 40.8164 12.1912 40.7754 11.7253 40.9749ZM33.9352 55.6181C33.9352 55.6511 34.2773 57.1025 34.6955 58.8435C35.1136 60.5845 35.4557 62.0667 35.4557 62.1373C35.4557 62.2139 34.0596 62.2657 32 62.2657C29.9404 62.2657 28.5443 62.2139 28.5443 62.1373C28.5443 62.0667 28.8864 60.5845 29.3045 58.8435C29.7227 57.1025 30.0648 55.6511 30.0648 55.6181C30.0648 55.5851 30.9356 55.5582 32 55.5582C33.0644 55.5582 33.9352 55.5851 33.9352 55.6181ZM42.2707 65.1496C42.9291 65.3306 43.3335 65.9389 43.3342 66.7489L43.3348 67.3307H31.9829H20.6309L20.6938 66.5798C20.7649 65.7318 21.0396 65.338 21.6907 65.1507C22.3165 64.9708 41.6166 64.9697 42.2707 65.1496Z" fill="#F22225"/>
</svg>
